# File created by Blade
# Date/Time:  Tue Jan 27 18:35:03 2015
# Frame Rate: 120.000 fps
#------------------------------------------------------
:FULLY-SPECIFIED
:DEGREES
1646
root -4.045022 31.490746 -2.174638 -13.164357 11.754159 -15.283827
Spine 12.166938 -12.583370 -3.676719
Head 11.509499 -3.600786 21.745466
LeftShoulder -12.851484 11.141067 18.738193
LeftArm 30.367429 -24.517272 -74.150794
LeftForeArm 125.032470 -0.000000 132.621661
LeftHand 9.922474 -0.000000 -5.818256
LeftHandThumb1 -26.253704 0.000000 33.147579
RightShoulder -15.825263 -9.339669 -5.136689
RightArm 1.756489 -36.219317 84.216130
RightForeArm -23.483341 -0.000000 29.741106
RightHand -13.692015 -0.000000 12.425671
RightHandThumb1 -24.326973 -0.000000 -32.862282
LeftUpLeg -3.812153 4.592496 9.827906
LeftLeg 36.015324 -0.000000 -0.000000
LeftFoot -31.958567 10.601387 -18.961432
LeftToeBase 9.746290 -0.000000 -0.000000
RightUpLeg -87.907006 2.089485 26.453797
RightLeg 86.473854 -0.000000 -0.000000
RightFoot -0.725142 -15.867954 14.772797
RightToeBase -0.923919 -0.000000 0.000000
1647
root -4.040774 31.489281 -2.174202 -13.183878 11.756889 -15.265900
Spine 12.178071 -12.526354 -3.665608
Head 11.478658 -3.614461 21.699299
LeftShoulder -12.849322 11.103931 18.737556
LeftArm 30.389387 -24.371059 -74.118579
LeftForeArm 125.066635 -0.000000 132.607150
LeftHand 9.922907 -0.000000 -5.799238
LeftHandThumb1 -26.253704 0.000000 33.147579
RightShoulder -15.829371 -9.357522 -5.156596
RightArm 1.803327 -36.251169 84.200452
RightForeArm -23.513928 0.000000 29.724893
RightHand -13.682679 0.000000 12.441340
RightHandThumb1 -24.326973 -0.000000 -32.862282
LeftUpLeg -3.787544 4.364031 9.740541
LeftLeg 35.996125 -0.000000 -0.000000
LeftFoot -32.028015 10.845281 -19.064621
LeftToeBase 9.767274 -0.000000 -0.000000
RightUpLeg -87.869036 2.074068 26.449002
RightLeg 86.520981 -0.000000 -0.000000
RightFoot -0.712263 -15.911653 14.698271
RightToeBase -0.805058 -0.000000 0.000000
1648
root -4.036691 31.488124 -2.176163 -13.189880 11.772210 -15.254221
Spine 12.176810 -12.491712 -3.653483
Head 11.472991 -3.624074 21.664166
LeftShoulder -12.846423 11.053022 18.756063
LeftArm 30.382812 -24.199437 -74.092844
LeftForeArm 125.158737 -0.000000 132.591619
LeftHand 9.961134 -0.000000 -5.782643
LeftHandThumb1 -26.253704 0.000000 33.147579
RightShoulder -15.824543 -9.434120 -5.164217
RightArm 1.938413 -36.278652 84.139507
RightForeArm -23.514433 -0.000000 29.692268
RightHand -13.683060 -0.000000 12.506521
RightHandThumb1 -24.326973 -0.000000 -32.862282
LeftUpLeg -3.773577 4.171865 9.661690
LeftLeg 35.955927 -0.000000 -0.000000
LeftFoot -32.077841 11.097946 -19.110070
LeftToeBase 9.702497 -0.000000 -0.000000
RightUpLeg -87.852865 2.050680 26.443115
RightLeg 86.574182 -0.000000 -0.000000
RightFoot -0.691354 -15.928192 14.784018
RightToeBase -0.849081 -0.000000 0.000000
1649
root -4.032454 31.487050 -2.176926 -13.199006 11.770316 -15.262613
Spine 12.172041 -12.454534 -3.601496
Head 11.444587 -3.644712 21.592662
LeftShoulder -12.876279 11.038664 18.749031
LeftArm 30.422511 -23.986329 -74.089567
LeftForeArm 125.254808 -0.000000 132.550193
LeftHand 9.910339 -0.000000 -5.716556
LeftHandThumb1 -26.253704 0.000000 33.147579
RightShoulder -15.819075 -9.423770 -5.197280
RightArm 1.964088 -36.327996 84.122872
RightForeArm -23.493930 -0.000000 29.679858
RightHand -13.663042 0.000000 12.547316
RightHandThumb1 -24.326973 -0.000000 -32.862282
LeftUpLeg -3.766769 3.957247 9.604155
LeftLeg 35.950535 -0.000000 -0.000000
LeftFoot -32.137372 11.335496 -19.159413
LeftToeBase 9.660882 -0.000000 -0.000000
RightUpLeg -87.821673 2.043409 26.463278
RightLeg 86.610447 -0.000000 -0.000000
RightFoot -0.788668 -16.029101 14.858612
RightToeBase -0.240523 -0.000000 0.000000
1650
root -4.029253 31.485795 -2.177795 -13.204491 11.759743 -15.270723
Spine 12.161716 -12.405721 -3.555260
Head 11.435851 -3.637559 21.560521
LeftShoulder -12.882401 11.021297 18.758103
LeftArm 30.455281 -23.783591 -74.065292
LeftForeArm 125.331017 -0.000000 132.530816
LeftHand 9.883268 -0.000000 -5.746722
LeftHandThumb1 -26.253704 0.000000 33.147579
RightShoulder -15.827327 -9.414711 -5.223751
RightArm 1.999600 -36.385262 84.101263
RightForeArm -23.508401 -0.000000 29.665194
RightHand -13.662507 0.000000 12.608513
RightHandThumb1 -24.326973 -0.000000 -32.862282
LeftUpLeg -3.761293 3.766457 9.559321
LeftLeg 35.948625 -0.000000 -0.000000
LeftFoot -32.206032 11.499101 -19.256943
LeftToeBase 9.688783 -0.000000 -0.000000
RightUpLeg -87.785222 2.053221 26.447585
RightLeg 86.643467 -0.000000 -0.000000
RightFoot -0.731652 -16.048410 14.735794
RightToeBase -0.154918 -0.000000 0.000000
